<svg width="177" height="174" viewBox="0 0 177 174" fill="none" xmlns="http://www.w3.org/2000/svg">
<path d="M15.515 119.184C18.0089 110.658 25.8275 104.799 34.7106 104.799H141.891C150.723 104.799 158.51 110.592 161.048 119.052L169.275 146.475C173.125 159.308 163.516 172.223 150.119 172.223H26.6885C13.3486 172.223 3.74771 159.411 7.49296 146.608L15.515 119.184Z" fill="#C5C5C5"/>
<path d="M32.5234 130.613C33.9092 124.428 39.3992 120.033 45.7369 120.033H130.859C137.379 120.033 142.973 124.679 144.17 131.088C145.726 139.419 139.334 147.115 130.859 147.115H45.7369C37.0642 147.115 30.6271 139.076 32.5234 130.613Z" fill="#A6A6A6"/>
<rect width="87.0369" height="44.401" rx="10" transform="matrix(-0.1089 0.994053 -0.99083 -0.135113 115.675 12.82)" fill="#FEE081"/>
<ellipse rx="5.02136" ry="4.51535" transform="matrix(-0.1089 0.994053 -0.99083 -0.135113 103.032 24.6054)" fill="#DCBB50"/>
<ellipse rx="2.09223" ry="1.8814" transform="matrix(-0.1089 0.994053 -0.99083 -0.135113 100.062 48.264)" fill="#DCBB50"/>
<ellipse rx="4.18447" ry="3.76279" transform="matrix(-0.1089 0.994053 -0.99083 -0.135113 104.515 59.4257)" fill="#DCBB50"/>
<ellipse rx="2.92913" ry="2.63396" transform="matrix(-0.1089 0.994053 -0.99083 -0.135113 83.8561 51.1204)" fill="#DCBB50"/>
<ellipse rx="2.51068" ry="2.25768" transform="matrix(-0.1089 0.994053 -0.99083 -0.135113 87.141 79.8537)" fill="#DCBB50"/>
<ellipse rx="1.25534" ry="1.12884" transform="matrix(-0.1089 0.994053 -0.99083 -0.135113 101.238 72.0663)" fill="#DCBB50"/>
<ellipse rx="4.18447" ry="3.76279" transform="matrix(-0.1089 0.994053 -0.99083 -0.135113 97.6878 87.2024)" fill="#DCBB50"/>
<ellipse rx="5.02136" ry="4.51535" transform="matrix(-0.1089 0.994053 -0.99083 -0.135113 77.3398 72.6067)" fill="#DCBB50"/>
<ellipse rx="2.51068" ry="2.25768" transform="matrix(-0.1089 0.994053 -0.99083 -0.135113 73.6695 57.7524)" fill="#DCBB50"/>
<ellipse rx="2.09223" ry="1.8814" transform="matrix(-0.1089 0.994053 -0.99083 -0.135113 91.2381 59.726)" fill="#DCBB50"/>
<ellipse rx="4.18447" ry="3.76279" transform="matrix(-0.1089 0.994053 -0.99083 -0.135113 88.152 36.0857)" fill="#DCBB50"/>
<ellipse rx="2.92913" ry="2.63396" transform="matrix(-0.1089 0.994053 -0.99083 -0.135113 92.7211 18.5553)" fill="#DCBB50"/>
<ellipse rx="2.92913" ry="2.63396" transform="matrix(-0.1089 0.994053 -0.99083 -0.135113 105.248 35.4619)" fill="#DCBB50"/>
<ellipse rx="2.09223" ry="1.8814" transform="matrix(-0.1089 0.994053 -0.99083 -0.135113 78.3299 39.3903)" fill="#DCBB50"/>
<ellipse rx="1.25534" ry="1.12884" transform="matrix(-0.1089 0.994053 -0.99083 -0.135113 81.4452 17.862)" fill="#DCBB50"/>
<path d="M131.377 30.9763C130.349 35.7885 128.333 45.5625 128.492 46.1603L129.831 45.7169L134.852 33.0786L131.377 30.9763Z" fill="#03443E"/>
<path d="M147.587 68.1857C153.565 50.0838 141.122 36.7447 129.142 45.9176C119.603 34.9469 111.039 33.7759 104.475 50.4621C97.9106 67.1484 112.476 77.2484 118.039 79.5353C123.602 81.8222 141.608 86.2875 147.587 68.1857Z" fill="#F52E2E"/>
<path d="M137.046 76.1882C141.023 73.7113 142.512 70.7987 142.512 70.7987C137.51 76.3788 128.283 78.8072 120.113 78.0383C128.551 79.6455 133.069 78.6651 137.046 76.1882Z" fill="white"/>
<path d="M28.4521 20.5703C34.0144 29.0258 45.41 46.0702 46.4943 46.6036L47.6895 43.5792L36.2641 17.1884L28.4521 20.5703Z" fill="#03443E"/>
<ellipse rx="8.12335" ry="9.07214" transform="matrix(0.654261 -0.793445 0.679252 0.69718 55.4624 56.6328)" fill="#250A5F"/>
<ellipse rx="8.12335" ry="9.07214" transform="matrix(0.654261 -0.793445 0.679252 0.69718 68.355 51.2471)" fill="#3D1B86"/>
<ellipse rx="8.12335" ry="9.07214" transform="matrix(0.654261 -0.793445 0.679252 0.69718 67.1799 34.5791)" fill="#250A5F"/>
<ellipse rx="8.12335" ry="9.07214" transform="matrix(0.654261 -0.793445 0.679252 0.69718 29.2349 56.9709)" fill="#3D1B86"/>
<ellipse rx="8.12335" ry="9.07214" transform="matrix(0.654261 -0.793445 0.679252 0.69718 68.1055 67.4674)" fill="#250A5F"/>
<ellipse rx="8.12335" ry="9.07214" transform="matrix(0.654261 -0.793445 0.679252 0.69718 55.7244 73.8717)" fill="#3D1B86"/>
<ellipse rx="8.12335" ry="9.07214" transform="matrix(0.654261 -0.793445 0.679252 0.69718 53.886 41.5544)" fill="#3D1B86"/>
<ellipse rx="8.12335" ry="9.07214" transform="matrix(0.654261 -0.793445 0.679252 0.69718 41.104 49.5481)" fill="#250A5F"/>
<ellipse rx="8.12335" ry="9.07214" transform="matrix(0.654261 -0.793445 0.679252 0.69718 68.2568 82.0984)" fill="#3D1B86"/>
<ellipse rx="8.12335" ry="9.07214" transform="matrix(0.654261 -0.793445 0.679252 0.69718 42.2791 66.2161)" fill="#250A5F"/>
<path d="M44.9517 138.652C32.7452 138.652 33.8806 108.564 28.4871 84.4941H148.849C144.307 109.514 143.456 138.652 131.533 138.652H44.9517Z" fill="#0F8D50"/>
<rect x="17.7" y="64.8578" width="141.936" height="19.6361" rx="9.81805" fill="#21B16C"/>
<path d="M75.8393 68.6689V73.5311C75.8393 76.2834 73.6082 78.5145 70.8559 78.5145C68.1037 78.5145 65.8726 76.2834 65.8726 73.5311V56.082C65.8726 50.5592 70.3497 46.082 75.8726 46.082H101.138C106.661 46.082 111.138 50.5592 111.138 56.082V73.4273C111.138 76.2369 108.861 78.5145 106.051 78.5145C103.241 78.5145 100.964 76.2369 100.964 73.4273V68.6689C100.964 63.2314 96.5558 58.8234 91.1182 58.8234H85.6849C80.2473 58.8234 75.8393 63.2314 75.8393 68.6689Z" fill="#0F8D50"/>
<path d="M41.6112 173.383L44.0375 171.144C43.2609 170.037 41.8092 170.353 41.0948 169.29C26.5025 155.364 25.0886 141.476 25.3411 120.324C24.1756 120.071 23.8487 119.865 22.8678 119.247C12.0913 138.326 13.6763 160.477 39.3646 171.006L41.6112 173.383Z" fill="#FFD346"/>
<path d="M41.6111 173.383L39.3645 171.006L41.1259 169.229L44.0686 171.082L41.6111 173.383Z" fill="black"/>
<path d="M25.2996 121.26C24.4136 121.023 22.5763 120.507 22.3147 120.342L22.8684 119.248C23.9044 119.869 24.442 120.092 25.3418 120.324L25.2996 121.26Z" fill="black"/>
<ellipse rx="0.390046" ry="1.62143" transform="matrix(0.957363 0.112064 -0.0966507 1.02777 21.3083 131.286)" fill="black"/>
<ellipse rx="1.59912" ry="0.395763" transform="matrix(0.169431 1.03064 -0.933149 0.190949 17.9568 142.312)" fill="black"/>
<ellipse rx="2.75244" ry="0.402295" transform="matrix(0.441198 0.944809 -0.827713 0.481115 24.7022 150.06)" fill="black"/>
<ellipse rx="0.541142" ry="1.55844" transform="matrix(0.722802 -0.644531 0.601672 0.839875 27.1001 162.19)" fill="black"/>
<path d="M74.2662 137.79L74.203 134.367C72.9754 134.359 72.312 135.787 71.1523 135.752C52.7825 139.751 42.4201 132.545 28.0945 119.52C27.2155 120.36 26.8765 120.513 25.8596 120.975C32.3927 141.711 48.5144 153.776 71.2786 138.265L74.2662 137.79Z" fill="#FFD346"/>
<path d="M74.2658 137.79L71.2782 138.265L71.1286 135.688L74.1793 134.303L74.2658 137.79Z" fill="black"/>
<path d="M28.7098 120.121C28.0108 120.733 26.545 121.986 26.2738 122.109L25.8601 120.974C26.9126 120.468 27.3913 120.145 28.0949 119.519L28.7098 120.121Z" fill="black"/>
<ellipse rx="0.377219" ry="1.5916" transform="matrix(0.678824 -0.773252 0.657053 0.717987 33.1549 129.594)" fill="black"/>
<ellipse rx="1.5616" ry="0.384976" transform="matrix(0.827486 0.491336 -0.446597 0.936217 38.6728 139.127)" fill="black"/>
<ellipse rx="2.67058" ry="0.393787" transform="matrix(0.941924 0.202298 -0.17567 1.01813 48.0615 138.073)" fill="black"/>
<ellipse rx="0.531387" ry="1.50651" transform="matrix(-0.00350099 -1.02465 0.971652 -0.00413241 57.8162 143.375)" fill="black"/>
<path d="M67.9707 159.228L69.1507 155.722C67.9068 155.158 66.7139 156.308 65.5485 155.748C45.4354 151.5 37.5283 139.492 27.7105 119.781C26.5125 120.236 26.1122 120.239 24.9115 120.248C24.0112 144.267 36.0027 163.815 64.7634 158.358L67.9707 159.228Z" fill="#FFD346"/>
<path d="M67.9707 159.227L64.7635 158.358L65.548 155.673L69.1502 155.646L67.9707 159.227Z" fill="black"/>
<path d="M28.1169 120.671C27.1848 120.975 25.2405 121.585 24.9203 121.587L24.9123 120.248C26.1655 120.209 26.769 120.098 27.7114 119.781L28.1169 120.671Z" fill="black"/>
<ellipse rx="0.40794" ry="1.75817" transform="matrix(0.897483 -0.442339 0.367968 0.929311 29.1896 132.304)" fill="black"/>
<ellipse rx="1.71263" ry="0.419872" transform="matrix(0.603597 0.796415 -0.727926 0.686711 31.3297 144.484)" fill="black"/>
<ellipse rx="2.90189" ry="0.433308" transform="matrix(0.812864 0.581267 -0.498449 0.867647 41.25 147.66)" fill="black"/>
<ellipse rx="0.587304" ry="1.6281" transform="matrix(0.333728 -0.943161 0.91467 0.402857 49.2313 157.459)" fill="black"/>
<path d="M49.3416 101.139C50.2916 101.006 51.2 100.914 52.0666 100.864C52.9333 100.798 53.675 100.764 54.2916 100.764C55.7583 100.764 57.1083 100.964 58.3416 101.364C59.575 101.764 60.6583 102.481 61.5916 103.514C62.4416 104.481 63.075 105.656 63.4916 107.039C63.9083 108.406 64.1166 109.881 64.1166 111.464C64.1166 113.014 63.9166 114.423 63.5166 115.689C63.1166 116.956 62.5 118.039 61.6666 118.939C60.85 119.839 59.8166 120.539 58.5666 121.039C57.3166 121.539 55.8416 121.789 54.1416 121.789C53.7583 121.789 53.1333 121.773 52.2666 121.739C51.4166 121.706 50.475 121.631 49.4416 121.514C49.4583 120.748 49.4666 120.006 49.4666 119.289C49.4833 118.556 49.4916 117.839 49.4916 117.139C49.5083 116.423 49.5166 115.706 49.5166 114.989C49.5166 114.273 49.5166 113.531 49.5166 112.764C49.5166 110.581 49.5 108.489 49.4666 106.489C49.45 104.489 49.4083 102.706 49.3416 101.139ZM54.1916 104.914C54.025 104.914 53.8666 104.923 53.7166 104.939C53.5833 104.956 53.45 104.973 53.3166 104.989C53.3 105.773 53.2916 106.556 53.2916 107.339C53.2916 108.106 53.2916 108.881 53.2916 109.664C53.2916 110.048 53.2916 110.456 53.2916 110.889C53.3083 111.323 53.3166 111.773 53.3166 112.239C53.3333 112.689 53.35 113.148 53.3666 113.614C53.3833 114.064 53.3916 114.489 53.3916 114.889C53.5416 114.923 53.6916 114.948 53.8416 114.964C53.9916 114.964 54.125 114.964 54.2416 114.964C54.8583 114.964 55.425 114.831 55.9416 114.564C56.475 114.298 56.9333 113.939 57.3166 113.489C57.7166 113.023 58.025 112.481 58.2416 111.864C58.4583 111.248 58.5666 110.589 58.5666 109.889C58.5666 109.373 58.4916 108.823 58.3416 108.239C58.2083 107.639 57.9666 107.098 57.6166 106.614C57.2833 106.131 56.8333 105.731 56.2666 105.414C55.7166 105.081 55.025 104.914 54.1916 104.914ZM77.0916 121.514H73.6666V120.289C73.0666 120.773 72.4333 121.148 71.7666 121.414C71.1 121.664 70.45 121.789 69.8166 121.789C69.0666 121.789 68.375 121.606 67.7416 121.239C67.1083 120.873 66.5583 120.364 66.0916 119.714C65.6416 119.048 65.2833 118.256 65.0166 117.339C64.75 116.423 64.6166 115.423 64.6166 114.339C64.6166 113.206 64.7583 112.148 65.0416 111.164C65.325 110.181 65.7083 109.331 66.1916 108.614C66.6916 107.881 67.275 107.314 67.9416 106.914C68.625 106.498 69.3583 106.289 70.1416 106.289C70.825 106.289 71.475 106.439 72.0916 106.739C72.7083 107.023 73.2333 107.381 73.6666 107.814V106.564H77.2166L77.0916 121.514ZM69.3916 112.489C69.3916 113.173 69.575 113.723 69.9416 114.139C70.325 114.556 70.8083 114.764 71.3916 114.764C72.025 114.764 72.5583 114.539 72.9916 114.089C73.4416 113.639 73.6666 113.064 73.6666 112.364C73.6666 112.048 73.6083 111.748 73.4916 111.464C73.3916 111.181 73.2416 110.939 73.0416 110.739C72.8416 110.523 72.6083 110.356 72.3416 110.239C72.075 110.123 71.7916 110.064 71.4916 110.064C70.8916 110.064 70.3916 110.289 69.9916 110.739C69.5916 111.189 69.3916 111.773 69.3916 112.489ZM78.4694 121.514C78.5194 119.931 78.5527 118.356 78.5694 116.789C78.586 115.206 78.5944 113.706 78.5944 112.289C78.5944 110.273 78.5777 108.356 78.5444 106.539C78.5277 104.723 78.5027 102.898 78.4694 101.064C79.286 100.981 80.1027 100.914 80.9194 100.864C81.7527 100.798 82.5944 100.764 83.4444 100.764C84.661 100.764 85.8027 100.856 86.8694 101.039C87.936 101.206 88.861 101.531 89.6444 102.014C90.4277 102.481 91.0444 103.131 91.4944 103.964C91.961 104.798 92.1944 105.873 92.1944 107.189C92.1944 108.823 91.8527 110.106 91.1694 111.039C90.5027 111.973 89.5944 112.673 88.4444 113.139L92.5194 121.514H88.0694L84.7444 113.889C84.061 113.939 83.3527 113.964 82.6194 113.964C82.6194 115.248 82.6277 116.506 82.6444 117.739C82.661 118.973 82.711 120.231 82.7944 121.514H78.4694ZM82.6194 110.164C83.136 110.214 83.611 110.239 84.0444 110.239C85.1777 110.239 85.9777 110.031 86.4444 109.614C86.9277 109.181 87.1694 108.539 87.1694 107.689C87.1694 107.173 87.0944 106.756 86.9444 106.439C86.811 106.123 86.6194 105.873 86.3694 105.689C86.136 105.506 85.8527 105.381 85.5194 105.314C85.2027 105.248 84.861 105.214 84.4944 105.214C84.2277 105.214 83.9277 105.231 83.5944 105.264C83.2777 105.281 82.9527 105.314 82.6194 105.364V110.164ZM98.1254 106.289C100.159 106.289 101.609 106.956 102.475 108.289C103.359 109.623 103.8 111.539 103.8 114.039C103.8 116.556 103.359 118.481 102.475 119.814C101.609 121.131 100.159 121.789 98.1254 121.789C96.0754 121.789 94.6088 121.131 93.7254 119.814C92.8588 118.481 92.4254 116.556 92.4254 114.039C92.4254 111.539 92.8588 109.623 93.7254 108.289C94.6088 106.956 96.0754 106.289 98.1254 106.289ZM98.1254 115.914C98.4588 115.914 98.7504 115.848 99.0004 115.714C99.2671 115.581 99.4838 115.406 99.6504 115.189C99.8171 114.973 99.9421 114.731 100.025 114.464C100.109 114.181 100.15 113.889 100.15 113.589C100.15 113.289 100.109 112.998 100.025 112.714C99.9421 112.431 99.8171 112.181 99.6504 111.964C99.4838 111.748 99.2671 111.573 99.0004 111.439C98.7504 111.306 98.4588 111.239 98.1254 111.239C97.4421 111.239 96.9254 111.481 96.5754 111.964C96.2421 112.448 96.0754 112.989 96.0754 113.589C96.0754 113.889 96.1171 114.181 96.2004 114.464C96.2838 114.731 96.4088 114.973 96.5754 115.189C96.7588 115.406 96.9754 115.581 97.2254 115.714C97.4754 115.848 97.7754 115.914 98.1254 115.914ZM111.613 106.289C112.597 106.289 113.488 106.431 114.288 106.714C114.288 106.998 114.288 107.306 114.288 107.639C114.305 107.956 114.313 108.281 114.313 108.614C114.313 108.964 114.305 109.314 114.288 109.664C114.288 110.014 114.288 110.339 114.288 110.639C113.738 110.173 113.063 109.939 112.263 109.939C111.763 109.939 111.347 110.023 111.013 110.189C110.68 110.339 110.405 110.539 110.188 110.789C109.988 111.039 109.847 111.314 109.763 111.614C109.68 111.898 109.638 112.173 109.638 112.439C109.638 112.806 109.705 113.156 109.838 113.489C109.972 113.806 110.155 114.089 110.388 114.339C110.622 114.589 110.888 114.789 111.188 114.939C111.505 115.073 111.838 115.139 112.188 115.139C112.522 115.139 112.872 115.073 113.238 114.939C113.605 114.806 113.955 114.623 114.288 114.389C114.288 114.939 114.288 115.514 114.288 116.114C114.305 116.698 114.313 117.289 114.313 117.889C114.313 118.473 114.305 119.073 114.288 119.689C114.288 120.289 114.288 120.889 114.288 121.489C113.355 121.689 112.43 121.789 111.513 121.789C110.38 121.789 109.372 121.614 108.488 121.264C107.605 120.898 106.855 120.381 106.238 119.714C105.622 119.048 105.147 118.239 104.813 117.289C104.497 116.323 104.338 115.248 104.338 114.064C104.338 112.948 104.488 111.914 104.788 110.964C105.088 109.998 105.538 109.173 106.138 108.489C106.755 107.806 107.513 107.273 108.413 106.889C109.33 106.489 110.397 106.289 111.613 106.289ZM112.888 122.864L111.388 126.639H108.988L109.588 122.889L112.888 122.864ZM127.556 121.514H124.131V120.289C123.531 120.773 122.897 121.148 122.231 121.414C121.564 121.664 120.914 121.789 120.281 121.789C119.531 121.789 118.839 121.606 118.206 121.239C117.572 120.873 117.022 120.364 116.556 119.714C116.106 119.048 115.747 118.256 115.481 117.339C115.214 116.423 115.081 115.423 115.081 114.339C115.081 113.206 115.222 112.148 115.506 111.164C115.789 110.181 116.172 109.331 116.656 108.614C117.156 107.881 117.739 107.314 118.406 106.914C119.089 106.498 119.822 106.289 120.606 106.289C121.289 106.289 121.939 106.439 122.556 106.739C123.172 107.023 123.697 107.381 124.131 107.814V106.564H127.681L127.556 121.514ZM119.856 112.489C119.856 113.173 120.039 113.723 120.406 114.139C120.789 114.556 121.272 114.764 121.856 114.764C122.489 114.764 123.022 114.539 123.456 114.089C123.906 113.639 124.131 113.064 124.131 112.364C124.131 112.048 124.072 111.748 123.956 111.464C123.856 111.181 123.706 110.939 123.506 110.739C123.306 110.523 123.072 110.356 122.806 110.239C122.539 110.123 122.256 110.064 121.956 110.064C121.356 110.064 120.856 110.289 120.456 110.739C120.056 111.189 119.856 111.773 119.856 112.489Z" fill="white"/>
</svg>
