<svg width="1292" height="916" viewBox="0 0 1292 916" fill="none" xmlns="http://www.w3.org/2000/svg">
<path d="M1282.98 639.256C1303.27 748.586 1282.98 906 1282.98 906H0V1.1156C0 1.1156 277.261 -10.384 375.162 40.4584C455.465 82.1621 290.51 137.404 375.162 177.371C526.158 248.663 826.417 164.626 983.915 189.174C1075.94 203.517 1120.18 275.728 1164.42 355.988C1198.96 418.655 1262.35 528.091 1282.98 639.256Z" fill="#C0FFE1"/>
<path d="M1245.82 726.009C1315.83 815.197 1279.44 915.641 1279.44 915.641H0V523C0 523 91.5098 531.002 161.036 550.54C382.24 612.701 267.518 568.927 435.329 654.405C603.14 739.883 754.694 581.228 946.752 581.228C1213.97 581.228 1180.34 642.602 1245.82 726.009Z" fill="#A4FFD3"/>
</svg>
