<svg width="1280" height="383" viewBox="0 0 1280 383" fill="none" xmlns="http://www.w3.org/2000/svg">
<path d="M284.5 423.732C290.233 495.859 284.5 599.709 284.5 599.709H-78V2.736C-78 2.736 7.5 2.50001 42 25C71.8706 44.4809 4.08222 92.6485 28 119.016C70.6633 166.049 155.5 110.608 200 126.802C226 136.265 238.5 183.904 251 236.853C260.76 278.196 278.671 350.394 284.5 423.732Z" fill="#C0FFE1"/>
<path d="M247 371.604C266.782 430.443 256.5 496.709 256.5 496.709H-105V237.674C-105 237.674 -79.1444 242.954 -59.5001 255.843C2.99994 296.853 -29.4141 267.973 17.9999 324.365C65.414 380.757 108.235 276.089 162.5 276.089C238 276.089 228.5 316.579 247 371.604Z" fill="#A4FFD3"/>
<path d="M1046.68 463.146C1054.59 530.81 1078.8 625.701 1078.8 625.701L1410.97 560.063L1302 8.62084C1302 8.62084 1215.37 8.67551 1209.61 51.7902C1205.18 84.9327 1243.2 106.539 1226.1 135.226C1195.59 186.397 1107.73 150.546 1069.91 173.563C1047.81 187.011 1045.05 233.281 1043.26 284.455C1041.87 324.412 1038.63 394.346 1046.68 463.146Z" fill="#C0FFE1"/>
<path d="M1073.54 412.69C1066.19 470.804 1087.75 530.357 1087.75 530.357L1419 464.9L1371.56 224.826C1371.56 224.826 1348.84 234.401 1333.2 249.904C1283.44 299.228 1307.85 266.594 1274.73 327.443C1241.61 388.293 1183.2 299.039 1133.48 308.865C1064.3 322.536 1080.42 358.342 1073.54 412.69Z" fill="#A4FFD3"/>
</svg>
